<svg width="41" height="40" viewBox="0 0 41 40" fill="none" xmlns="http://www.w3.org/2000/svg">
<path d="M20.1943 40H20.05C10.7222 39.9761 4.47159 38.0406 3.17339 36.8459C1.80306 35.6272 0 29.319 0 20C0 10.7049 1.80306 4.37276 3.17339 3.15412C4.47159 1.95938 10.7462 0.0238949 20.05 0H20.1943C29.5221 0.0238949 35.7727 1.95938 37.0709 3.15412C38.4412 4.37276 40.2443 10.7049 40.2443 20C40.2443 29.2951 38.4412 35.6272 37.0709 36.8459C35.7727 38.0645 29.5221 40 20.1943 40Z" fill="url(#paint0_linear_2_5243)"/>
<path d="M20.1943 40H20.05C10.7222 39.9761 4.47159 38.0406 3.17339 36.8459C1.80306 35.6272 0 29.319 0 20C0 10.7049 1.80306 4.37276 3.17339 3.15412C4.47159 1.95938 10.7462 0.0238949 20.05 0H20.1943C29.5221 0.0238949 35.7727 1.95938 37.0709 3.15412C38.4412 4.37276 40.2443 10.7049 40.2443 20C40.2443 29.2951 38.4412 35.6272 37.0709 36.8459C35.7727 38.0645 29.5221 40 20.1943 40Z" fill="white"/>
<defs>
<linearGradient id="paint0_linear_2_5243" x1="3.17769" y1="3.16045" x2="36.8672" y2="37.0558" gradientUnits="userSpaceOnUse">
<stop stop-color="#05C2FF"/>
<stop offset="1" stop-color="#0357EE"/>
</linearGradient>
</defs>
</svg>
